<svg width="25" height="24" viewBox="0 0 25 24" fill="none" xmlns="http://www.w3.org/2000/svg">
<g clip-path="url(#clip0_3_4213)">
<path d="M24.7642 3.20393C24.7837 3.31151 24.8203 3.41925 24.8203 3.52683C24.8231 8.00041 24.8207 12.474 24.8282 16.9474C24.8287 17.1893 24.7368 17.3048 24.542 17.4134C22.7427 18.4167 20.9482 19.4291 19.1526 20.4394C19.0548 20.4944 18.9592 20.5537 18.8627 20.6109C18.8372 20.4684 18.7896 20.326 18.7893 20.1834C18.7845 18.141 18.7863 16.0985 18.7851 14.0561C18.7851 13.9245 18.7737 13.7928 18.7664 13.6356C18.6761 13.6703 18.6287 13.682 18.5872 13.7054C16.6641 14.7872 14.7415 15.8702 12.8189 16.953C12.795 16.946 12.7709 16.9388 12.7469 16.9317C12.7476 14.7961 12.7465 12.6607 12.7521 10.5253C12.7525 10.3251 12.7962 10.1249 12.8199 9.92479C13.474 9.56026 14.1292 9.19747 14.7823 8.83087C17.4816 7.31552 20.1807 5.79985 22.8789 4.28212C23.51 3.92712 24.136 3.56354 24.7642 3.20393Z" fill="#1F009D"/>
<path d="M12.7474 16.9317C12.7713 16.9388 12.7954 16.9458 12.8194 16.953C12.7937 17.1012 12.7507 17.2489 12.7461 17.3976C12.7353 17.7521 12.7424 18.1073 12.7424 18.4623C12.7424 20.1354 12.7437 21.8086 12.7404 23.4817C12.7401 23.6518 12.7895 23.8464 12.5951 23.9585C10.7127 22.8985 8.83114 21.8374 6.94802 20.7789C5.32606 19.8674 3.70145 18.961 2.08027 18.0479C1.62402 17.7909 1.17586 17.5185 0.724121 17.2533C0.726297 17.0501 0.730184 16.8468 0.730339 16.6436C0.730495 12.3877 0.730495 8.13199 0.730495 3.87611C0.730495 3.76169 0.723655 3.6468 0.733914 3.53334C0.741221 3.45277 0.772 3.37459 0.802468 3.25557C1.01948 3.37745 1.20182 3.48042 1.38447 3.58244C2.27831 4.08142 3.17323 4.57816 4.06567 5.07936C4.94723 5.57436 5.82661 6.07381 6.70692 6.57135C6.70459 8.81895 6.70132 11.0665 6.70366 13.3143C6.70381 13.4209 6.75511 13.5276 6.78247 13.6342C8.66792 14.6957 10.5532 15.7578 12.4401 16.8168C12.5346 16.8697 12.6446 16.894 12.7474 16.9317Z" fill="#6DCAFF"/>
<path d="M6.78248 13.634C6.75496 13.5274 6.70382 13.4208 6.70366 13.3141C6.70133 11.0665 6.70475 8.81895 6.70693 6.57119C8.00789 5.85277 9.3104 5.13704 10.6095 4.41512C11.2745 4.0455 11.9338 3.66492 12.5955 3.28942C12.7301 3.22617 12.8688 3.17039 12.9989 3.09873C14.8031 2.10555 16.6082 1.11428 18.4067 0.110774C18.6473 -0.0235038 18.8333 -0.0435263 19.0876 0.0961541C20.8599 1.06915 22.6426 2.02228 24.4209 2.98399C24.5398 3.04835 24.6499 3.13019 24.764 3.20392C24.1358 3.56353 23.5098 3.92712 22.879 4.28196C20.181 5.79969 17.4818 7.31536 14.7824 8.83071C14.1293 9.19731 13.4741 9.5601 12.82 9.92463C12.6796 9.87744 12.5287 9.85042 12.4009 9.77987C11.5271 9.29647 10.658 8.80385 9.78732 8.31441C8.92753 7.83102 8.06836 7.34651 7.20701 6.86597C7.09306 6.8024 6.96808 6.75966 6.84232 6.70451C6.74859 7.07859 6.7175 11.5288 6.78248 13.634Z" fill="#5429FF"/>
<path d="M12.5948 23.9585C12.7892 23.8464 12.7399 23.6518 12.7402 23.4817C12.7435 21.8086 12.7422 20.1354 12.7422 18.4623C12.7422 18.1075 12.7351 17.7523 12.7459 17.3976C12.7506 17.2487 12.7937 17.1011 12.8192 16.953C14.7418 15.8702 16.6644 14.7872 18.5874 13.7054C18.6288 13.6822 18.6764 13.6703 18.7667 13.6356C18.774 13.7928 18.7852 13.9244 18.7853 14.0561C18.7864 16.0985 18.7846 18.141 18.7895 20.1834C18.7898 20.326 18.8372 20.4684 18.8629 20.6109C17.7133 21.2548 16.5638 21.8982 15.4146 22.5426C14.6011 22.9987 13.7887 23.4568 12.9748 23.9121C12.8565 23.9782 12.7348 24.0579 12.5948 23.9585Z" fill="#B9E5FF"/>
<path d="M12.942 3.28942C12.28 3.66508 11.6209 4.04551 10.9559 4.41513C9.65683 5.13705 8.35447 5.85293 7.05336 6.5712C6.17304 6.07366 5.29382 5.57421 4.41211 5.07921C3.51951 4.57801 2.62459 4.08126 1.73091 3.58229C1.54825 3.48027 1.36591 3.37746 1.1489 3.25542C1.11844 3.37444 1.08766 3.45262 1.08035 3.53319C1.07009 3.64681 1.07693 3.76186 1.07693 3.87611C1.07693 8.13199 1.07693 12.3877 1.07662 16.6436C1.07662 16.8468 1.07258 17.0501 1.0704 17.2533C1.04755 17.1049 1.0048 16.9563 1.00465 16.8079C1.00123 12.4117 1.00465 8.01551 0.996096 3.61948C0.995475 3.29673 1.10305 3.11971 1.38441 2.97018C3.13726 2.03897 4.88343 1.09411 6.62416 0.139543C6.91874 -0.0220667 7.1415 -0.0195242 7.44338 0.154163C9.07809 1.09458 10.7304 2.00322 12.3747 2.92648C12.57 3.03612 12.7532 3.16802 12.942 3.28942Z" fill="#99DAFF"/>
<path d="M6.78244 13.634C6.71746 11.5288 6.74855 7.07843 6.84213 6.70436C6.96805 6.7595 7.09303 6.80225 7.20682 6.86581C8.06816 7.34635 8.92734 7.83086 9.78713 8.31426C10.6578 8.8037 11.5269 9.29631 12.4009 9.77971C12.5286 9.85043 12.6797 9.87728 12.82 9.92448C12.7963 10.1247 12.7528 10.3248 12.7522 10.525C12.7466 12.6604 12.7477 14.796 12.747 16.9314C12.6443 16.8937 12.5344 16.8694 12.4399 16.8163C10.5532 15.7578 8.66805 14.6955 6.78244 13.634Z" fill="#2900CE"/>
</g>
<defs>
<clipPath id="clip0_3_4213">
<rect width="24.1785" height="24.005" fill="white" transform="translate(0.649658 0.000335693)"/>
</clipPath>
</defs>
</svg>
