<svg width="8" height="7" viewBox="0 0 8 7" fill="none" xmlns="http://www.w3.org/2000/svg">
<path d="M7.74896 0.750975C7.90966 0.911723 7.99994 1.12971 7.99994 1.35701C7.99994 1.58431 7.90966 1.8023 7.74896 1.96305L3.46299 6.24902C3.30224 6.40972 3.08425 6.5 2.85695 6.5C2.62965 6.5 2.41166 6.40972 2.25091 6.24902L0.536523 4.53463C0.380378 4.37297 0.293978 4.15644 0.295931 3.93168C0.297884 3.70693 0.388034 3.49193 0.546965 3.333C0.705896 3.17407 0.920891 3.08392 1.14564 3.08197C1.3704 3.08001 1.58693 3.16642 1.7486 3.32256L2.85695 4.43091L6.53689 0.750975C6.69764 0.590276 6.91563 0.5 7.14293 0.5C7.37022 0.5 7.58822 0.590276 7.74896 0.750975Z" fill="#2300F7"/>
</svg>
